<svg xmlns="http://www.w3.org/2000/svg" height="800" width="1200" viewBox="-58.74255 -29.559 509.1021 177.354"><g fill-rule="evenodd"><path d="M342.903 12.802v7.49h-6.362v-7.49zm-232.74 7.248l-1.45.885c2.215 4.63 5.919 7.972 9.26 7.972 3.583 0 6.04-2.294 6.04-4.993 0-.683-.122-1.529-.444-2.254l.08-.08c.725.523 3.02 1.288 3.463 1.288.483 0 1.006-.04 1.45-.201l-.202 5.756 3.824 2.544V12.802h4.952l-.281 15.621 3.864 2.544V12.802h9.381c.604.887.845 1.933.845 2.417 0 .362-.483.886-.885 1.086-.766.403-3.302 1.33-4.349 1.49 1.007 5.153 4.349 8.777 7.852 8.777 1.45 0 3.623-.845 5.113-1.852l-.202 3.703 3.825 2.544V12.802h20.976v4.59c-.806-.804-2.497-1.529-3.463-1.529-1.128 0-2.658.885-3.825 2.415-1.73-2.294-3.22-3.26-4.832-3.26-2.576-.001-4.992 2.496-4.992 5.515 0 2.577 1.57 5.677 7.006 10.676l1.812-1.497c-3.503-2.819-5.596-4.911-5.596-7.488 0-2.094 1.327-3.825 3.22-3.825 1.047 0 1.973.523 2.456 1.288-.242.443-.685 1.49-.805 2.054l3.02 2.013c1.248-3.463 3.18-4.832 5.193-4.832.241 0 .604.042.885.122l-.2 9.38 3.823 2.543V12.802h3.986l-2.013-3.38h-65.059l1.933 3.38h2.656v4.993c0 1.046-2.173 2.255-3.905 2.255-.885 0-2.174-.564-3.14-1.49 1.369-.926 1.772-1.852 1.772-2.859 0-2.858-4.107-6.763-7.529-6.763-1.046 0-3.865.805-5.355 1.41l1.893 3.542c2.576-1.088 5.234-1.73 6.078-1.65 1.007-.002 1.692.362 1.692 1.45 0 1.81-1.852 3.38-5.678 3.945-.804.12-1.005.362-1.005.523 0 .282 1.288 2.053 2.214 3.06 1.53-.323 3.422-1.088 4.469-1.732.442.685.805 1.811.805 2.9 0 1.85-1.893 3.3-4.308 3.3-2.254 0-4.51-1.932-6.32-5.636zM133.747.967L132.5 2.053c1.812 3.544 4.026 5.154 6.764 5.154 2.496 0 4.717-1.61 6.247-4.55L143.008.604c-1.047 2.415-3.06 3.785-4.67 3.785-1.73 0-3.1-.805-4.59-3.422zm24.847 11.835v7.53c-1.61 1.449-5.154 3.019-6.643 3.019-1.932 0-2.658-.765-2.658-1.852 0-.846.524-1.288 1.651-1.57 2.577-.644 3.262-1.127 3.262-1.892 0-.725-.886-3.06-1.812-5.234zm49.478 24.686l1.651-1.006-3.06-4.912c3.665-.361 7.005-3.509 7.005-5.32 0-1.248-1.007-3.302-2.214-5.072-.403-.564-.925-.806-2.093-.806-.806 0-4.871 1.086-5.193 1.086-.402 0-.765-.24-.765-1.167 0-1.046.765-1.932 1.73-1.973h6.603c.403 0 .684-.321.684-.966v-4.55h5.518l-.283 15.621 3.866 2.544V12.802h17.27v2.256h-5.798c-2.415 0-3.583 1.288-3.583 3.1.001 2.294 3.382 6.683 5.839 6.683 1.45 0 4.147-.927 5.274-.927.684 0 .926.363.926.604 0 1.168-1.973 3.222-5.073 3.222-2.818 0-5.676-1.45-8.656-4.71l-1.369 1.126c5.113 5.314 8.173 6.811 12.48 6.811 3.02 0 5.436-2.463 5.436-4.838 0-.886-.242-1.45-1.41-3.26-1.287-2.054-1.85-2.336-3.18-2.336-1.046 0-5.677.966-6.12.925-.522-.039-1.087-.523-1.087-1.127 0-1.328.927-2.053 2.336-2.053h6.764c.402 0 .684-.362.684-.966v-4.51h9.703c.603.887.845 1.933.845 2.417 0 .362-.483.886-.885 1.086-.765.403-3.303 1.33-4.349 1.49 1.007 5.153 4.349 8.777 7.85 8.777 1.451 0 3.624-.845 5.114-1.852l-.202 3.703 3.826 2.544V12.802h4.952l-.282 15.621 3.864 2.544V12.802h4.872l-2.014-3.38h-55.155c-.12-.403-.08-.846-.08-1.249 0-2.576 1.328-4.348 4.066-4.348 2.859 0 6.28 1.974 8.938 4.348l.764-1.328c-2.254-2.336-7.77-6.24-11.273-6.24-3.381 0-5.636 1.77-5.636 4.71 0 1.49.564 2.978 1.248 4.106h-21.625l2.013 3.381h10.15v2.296h-5.634c-1.248-.081-2.496 1.087-2.496 3.341 0 2.576 2.939 6.402 4.991 6.402 1.45 0 3.663-1.087 4.347-1.087.483 0 .685.322.685.644 0 1.046-2.295 3.905-6.239 4.065-.604-1.69-1.248-2.173-2.174-2.173-.684 0-1.289.644-1.289 1.329 0 .925 0 2.335.202 2.737.361.731 1.57 1.295 2.294 1.336.725.04 1.209.16 1.61.724.444.604 1.852 3.302 2.818 5.072zm5.549-33.382l-3.059-3.059-3.02 3.02 3.06 3.06zm46.83 8.696v7.53c-1.61 1.449-5.154 3.019-6.644 3.019-1.932 0-2.656-.765-2.656-1.852 0-.846.522-1.288 1.65-1.57 2.577-.644 3.26-1.127 3.26-1.892 0-.725-.885-3.06-1.81-5.234zm25.242 0h2.617l-.281 15.621 3.864 2.544V12.802h21.902v4.59c-.806-.804-2.496-1.529-3.463-1.529-1.127 0-2.658.885-3.824 2.415-1.732-2.294-3.221-3.26-4.831-3.26-2.577-.001-4.993 2.496-4.993 5.515 0 2.577 1.57 5.677 7.006 10.676l1.811-1.497c-3.503-2.819-5.596-4.911-5.596-7.488 0-2.094 1.328-3.825 3.22-3.825 1.047 0 1.973.523 2.455 1.288-.24.443-.683 1.49-.804 2.054l3.02 2.013c1.247-3.463 3.18-4.832 5.193-4.832.241 0 .604.042.886.122l-.202 9.38 3.826 2.543V12.802h4.79l-.281 15.621 3.864 2.544V12.802h6.965v7.409h-1.167c-.645 0-1.007.443-1.007.886 0 1.449 3.744 5.274 4.831 5.274.645 0 1.046-.322 1.046-.886v-1.812h6.443l-.202 4.75 3.825 2.544V12.802h12.522v2.336c0 .644-.202 1.047-3.222 1.57-4.549.806-5.434 2.778-5.434 4.832 0 4.146 3.986 7.81 9.139 7.81 2.093 0 5.032-1.369 6.602-2.577L364.4 23.23c-2.456 1.771-5.274 3.3-7.568 3.3-2.054 0-3.302-.924-3.302-2.576 0-2.375 1.288-3.1 5.033-3.945 4.066-.927 4.267-1.046 4.267-2.295v-4.913h19.848v2.256h-5.797c-2.415 0-3.583 1.288-3.583 3.1 0 2.294 3.382 6.683 5.837 6.683 1.45 0 4.147-.926 5.275-.926.684 0 .925.362.925.604 0 1.167-1.973 3.22-5.072 3.22-2.818 0-5.677-1.449-8.657-4.71l-1.367 1.127c5.113 5.314 8.172 6.811 12.48 6.811 3.02 0 5.434-2.463 5.434-4.838.001-.886-.24-1.45-1.408-3.26-1.288-2.054-1.852-2.336-3.181-2.336-1.046 0-5.676.966-6.12.925-.523-.039-1.087-.522-1.087-1.127 0-1.327.926-2.053 2.336-2.053h6.764c.402 0 .684-.362.684-.966v-4.51h5.475l-2.013-3.38h-27.727c-2.194-3.68-3.753-6.385-5.535-7.972C354.853.12 353.686 0 352.961 0c-.966 0-2.175.08-2.175.845 0 .483.202.845 1.732 3.584.605-.202 1.53-.403 2.335-.403.805 0 1.49.362 2.054.926 1.062 1.026 1.969 2.179 3.46 4.469h-35.62c-.122-.403-.082-.846-.082-1.249 0-2.576 1.328-4.348 4.067-4.348 2.858 0 6.28 1.974 8.937 4.348l.765-1.328c-2.255-2.336-7.77-6.24-11.273-6.24-3.381 0-5.637 1.77-5.637 4.71.001 1.49.564 2.978 1.248 4.107h-32.005c-.121-.403-.081-.846-.081-1.249 0-2.576 1.328-4.348 4.066-4.348 2.858 0 6.281 1.974 8.938 4.348l.766-1.328c-2.256-2.336-7.771-6.24-11.274-6.24-3.381 0-5.637 1.77-5.637 4.71 0 1.49.564 2.978 1.249 4.107h-5.12l2.02 3.38zM117.317 81.496c0 3.172.206 5.34.627 6.501.413 1.162 1.147 1.746 2.188 1.746 1.034 0 1.754-.577 2.167-1.724.407-1.148.613-3.322.613-6.522 0-3.201-.206-5.381-.613-6.537-.413-1.155-1.133-1.732-2.167-1.732-1.041 0-1.775.584-2.188 1.753-.421 1.168-.627 3.344-.627 6.515zm-8.604.208c0-5.04.998-8.94 2.994-11.712 2.003-2.773 4.811-4.156 8.425-4.156 3.608 0 6.402 1.383 8.39 4.148 1.982 2.76 2.973 6.665 2.973 11.72 0 5.039-.991 8.938-2.966 11.697-1.974 2.758-4.776 4.134-8.397 4.134-3.628 0-6.443-1.383-8.432-4.15-1.99-2.758-2.987-6.657-2.987-11.681zm24.541-13.473c0-1.304.442-2.402 1.334-3.286.891-.884 1.989-1.326 3.279-1.326 1.298 0 2.38.442 3.258 1.326.877.883 1.318 1.982 1.318 3.286 0 1.283-.441 2.374-1.326 3.272-.884.898-1.967 1.348-3.25 1.348-1.29-.001-2.388-.45-3.279-1.341-.892-.892-1.334-1.982-1.334-3.279zm.728 28.698V75.545h7.749v21.384zm11.213 0V63.662h7.748V96.93zm22.068 0V66.44h8.52v30.49zm11.99 0V75.545h7.434v3.171c.727-1.212 1.576-2.102 2.546-2.68.975-.577 2.124-.87 3.45-.87 1.61 0 2.843.479 3.685 1.441.841.962 1.261 2.374 1.261 4.242v16.08h-7.684V84.476c0-.65-.128-1.14-.377-1.468-.25-.329-.628-.492-1.127-.492a1.28 1.28 0 00-1.097.564c-.271.377-.406.882-.406 1.524v12.325zm28.69-10.692c0 1.519.156 2.658.47 3.421.315.764.785 1.148 1.412 1.148.656 0 1.169-.4 1.532-1.198.37-.8.557-1.924.557-3.37 0-1.448-.186-2.574-.557-3.372-.363-.799-.876-1.198-1.532-1.198-.627 0-1.098.384-1.412 1.147-.314.763-.47 1.903-.47 3.422zm3.97 10.692v-2.36c-.727.999-1.496 1.74-2.316 2.21-.82.478-1.725.713-2.716.713-2.159 0-3.835-.983-5.025-2.958-1.19-1.968-1.781-4.733-1.781-8.297 0-3.55.599-6.316 1.795-8.29 1.197-1.975 2.866-2.966 5.01-2.966a5.26 5.26 0 012.673.7c.807.469 1.598 1.211 2.36 2.223V63.662h7.749V96.93zm10.159-28.698c0-1.304.44-2.402 1.332-3.286.89-.884 1.988-1.326 3.278-1.326 1.298 0 2.381.442 3.258 1.326.877.883 1.318 1.982 1.318 3.286 0 1.283-.442 2.374-1.324 3.272-.885.898-1.968 1.348-3.252 1.348-1.29-.001-2.387-.45-3.278-1.341-.891-.892-1.333-1.982-1.332-3.279zm.726 28.698V75.545h7.748v21.384zm18.433-10.692c0 1.519.157 2.658.47 3.428.314.763.785 1.147 1.411 1.147.629 0 1.106-.39 1.433-1.183.33-.784.492-1.917.492-3.392 0-1.504-.163-2.644-.492-3.429-.327-.791-.805-1.184-1.433-1.184-.612 0-1.083.394-1.403 1.17-.32.777-.478 1.932-.478 3.443zm3.971 10.692v-2.36c-.763 1.034-1.554 1.782-2.367 2.253a5.196 5.196 0 01-2.666.713c-2.13 0-3.8-.99-5.003-2.972-1.206-1.99-1.804-4.762-1.804-8.326 0-3.593.591-6.373 1.781-8.34 1.191-1.975 2.866-2.958 5.026-2.958a5.27 5.27 0 012.673.698c.806.47 1.597 1.212 2.36 2.225v-2.317h7.748v21.384zm21.49 0V66.44h8.562v22.925h6.244v7.563zm16.46-28.698c0-1.304.441-2.402 1.331-3.286.892-.884 1.99-1.326 3.28-1.326 1.298 0 2.38.442 3.257 1.326.878.883 1.319 1.982 1.319 3.286 0 1.283-.441 2.374-1.326 3.272-.883.898-1.967 1.348-3.25 1.348-1.29-.001-2.388-.45-3.28-1.341-.89-.892-1.332-1.982-1.332-3.279zm.726 28.698V75.545h7.749v21.384zm10.92 0V75.545h7.435v3.171c.727-1.226 1.575-2.13 2.56-2.716.975-.585 2.123-.876 3.435-.876 1.219 0 2.23.3 3.037.891.797.592 1.382 1.49 1.74 2.702.597-1.227 1.368-2.132 2.294-2.717.934-.585 2.06-.876 3.385-.876 1.626 0 2.874.485 3.728 1.461.857.977 1.284 2.396 1.284 4.264v16.08h-7.749V84.476c0-.663-.121-1.162-.356-1.483-.235-.32-.599-.477-1.083-.477a1.19 1.19 0 00-1.041.556c-.249.364-.378.877-.378 1.532v12.325h-7.705V84.476c0-.663-.122-1.162-.357-1.483-.235-.32-.598-.477-1.084-.477-.455 0-.819.185-1.075.556-.258.364-.386.877-.386 1.532v12.325zm31.265-28.698c0-1.304.44-2.402 1.333-3.286.89-.884 1.988-1.326 3.278-1.326 1.298 0 2.381.442 3.258 1.326.876.883 1.318 1.982 1.318 3.286 0 1.283-.442 2.374-1.326 3.272-.884.898-1.966 1.348-3.25 1.348-1.29-.001-2.388-.45-3.278-1.341-.891-.892-1.333-1.982-1.333-3.279zm.727 28.698V75.545h7.747v21.384zm12.196 0v-14.62h-2.566v-6.764h2.566v-6.287h7.791v6.287h2.78v6.764h-2.78v14.62zm18.818-13.387h4.57c0-1.211-.194-2.124-.571-2.73-.386-.605-.963-.904-1.725-.904-.599 0-1.084.299-1.448.89-.37.592-.648 1.505-.826 2.744zm11.042 5.908c-.308 2.51-1.277 4.484-2.916 5.925-1.632 1.44-3.728 2.16-6.294 2.16-3.009 0-5.326-.97-6.95-2.916-1.633-1.94-2.445-4.704-2.445-8.296 0-3.608.82-6.41 2.466-8.398 1.64-1.989 3.935-2.986 6.886-2.986 3.222 0 5.617.885 7.206 2.652 1.59 1.767 2.38 4.433 2.38 7.997.001.42 0 .735-.004.948a4.283 4.283 0 01-.057.599h-11.312v.292c0 1.575.178 2.702.534 3.38.35.683.935 1.025 1.74 1.025.598 0 1.083-.192 1.447-.584.37-.392.641-.991.805-1.797h6.516zm10.043-3.213c0 1.519.156 2.658.47 3.421.313.764.783 1.148 1.411 1.148.656 0 1.17-.4 1.533-1.198.371-.8.556-1.924.556-3.37 0-1.448-.186-2.574-.556-3.372-.364-.799-.877-1.198-1.533-1.198-.628 0-1.098.384-1.411 1.147-.313.763-.47 1.903-.47 3.422zm3.97 10.692v-2.36c-.728.999-1.497 1.74-2.317 2.21-.82.478-1.725.713-2.716.713-2.16 0-3.835-.983-5.025-2.958-1.19-1.968-1.782-4.733-1.782-8.297 0-3.55.598-6.316 1.797-8.29 1.197-1.975 2.865-2.966 5.01-2.966a5.26 5.26 0 012.673.7c.806.469 1.597 1.211 2.36 2.223V63.662h7.748V96.93z" fill="#231f20"/><path d="M20.864 69.551h.174c5.164 1.37 10.707 2 16.055 2 5.344 0 10.923-.545 16.228-1.92v48.605H20.864z" fill="#ed1c24"/><path d="M37.093 0C47.24 0 58.613 2.563 65.35 8.63c6.65 6.15 8.837 15.717 8.837 24.944 0 9.311-1.487 18.452-8.224 24.518-7.611 6.92-18.722 9.14-28.87 9.14s-21.084-2.562-27.82-8.627C2.623 52.539 0 42.886 0 33.574c0-9.995 2.537-18.709 9.798-25.286C16.446 2.136 26.945 0 37.093 0zm-.044 20.015c4.481 0 9.432 1.075 12.34 3.534 2.986 2.457 3.93 6.375 3.93 10.061 0 3.764-.707 7.45-3.615 9.91-3.301 2.764-8.174 3.686-12.655 3.686-4.4 0-9.194-1-12.102-3.457-2.987-2.457-4.087-6.375-4.087-10.138 0-4.07 1.1-7.528 4.244-10.216 2.908-2.459 7.545-3.38 11.945-3.38" fill="#231f20"/></g></svg>